<svg xmlns="http://www.w3.org/2000/svg" xmlns:svg="http://www.w3.org/2000/svg" xmlns:xlink="http://www.w3.org/1999/xlink" id="svg8" width="160" height="160" version="1.1" viewBox="0 0 160 160"><defs id="defs2"><linearGradient id="linearGradient13423"><stop id="stop13407" offset="0" style="stop-color:#7e5b00;stop-opacity:1"/><stop style="stop-color:#fff;stop-opacity:1" id="stop13409" offset=".25"/><stop style="stop-color:#fff;stop-opacity:1" id="stop13411" offset=".375"/><stop id="stop13413" offset=".474" style="stop-color:#7e5c00;stop-opacity:1"/><stop style="stop-color:#feb700;stop-opacity:1" id="stop13415" offset=".632"/><stop style="stop-color:#fff;stop-opacity:1" id="stop13417" offset=".737"/><stop id="stop13419" offset=".895" style="stop-color:#fff;stop-opacity:1"/><stop id="stop13421" offset="1" style="stop-color:#7e5c00;stop-opacity:1"/></linearGradient><linearGradient id="linearGradient13009"><stop style="stop-color:#fff;stop-opacity:1" id="stop13001" offset="0"/><stop id="stop13003" offset=".2" style="stop-color:#fff;stop-opacity:1"/><stop style="stop-color:#feb900;stop-opacity:1" id="stop13005" offset=".65"/><stop style="stop-color:#7e5b00;stop-opacity:1" id="stop13007" offset="1"/></linearGradient><linearGradient id="linearGradient12913"><stop id="stop12905" offset="0" style="stop-color:#fff;stop-opacity:1"/><stop style="stop-color:#fff;stop-opacity:1" id="stop12907" offset=".3"/><stop id="stop12909" offset=".65" style="stop-color:#feb900;stop-opacity:1"/><stop id="stop12911" offset="1" style="stop-color:#7e5b00;stop-opacity:1"/></linearGradient><linearGradient id="linearGradient4178"><stop style="stop-color:#fff;stop-opacity:1" id="stop4168" offset="0"/><stop id="stop4170" offset=".742" style="stop-color:#2c102e;stop-opacity:1"/><stop style="stop-color:#20205e;stop-opacity:1" id="stop4172" offset=".774"/><stop id="stop4174" offset=".903" style="stop-color:#ab00b6;stop-opacity:1"/><stop style="stop-color:#ef00fe;stop-opacity:1" id="stop4176" offset="1"/></linearGradient><linearGradient id="linearGradient2178"><stop id="stop2172" offset="0" style="stop-color:#fff;stop-opacity:1"/><stop style="stop-color:#fff;stop-opacity:1" id="stop2174" offset=".3"/><stop id="stop12709" offset=".65" style="stop-color:#feb900;stop-opacity:1"/><stop id="stop2176" offset="1" style="stop-color:#7e5b00;stop-opacity:1"/></linearGradient><linearGradient id="linearGradient1978"><stop style="stop-color:#fff;stop-opacity:1" id="stop1972" offset="0"/><stop id="stop1974" offset=".2" style="stop-color:#fff;stop-opacity:1"/><stop style="stop-color:#ffc31f;stop-opacity:1" id="stop13019" offset=".6"/><stop style="stop-color:#7e5b00;stop-opacity:1" id="stop1976" offset="1"/></linearGradient><linearGradient id="linearGradient1496"><stop id="stop1490" offset="0" style="stop-color:#fff;stop-opacity:1"/><stop style="stop-color:#fff;stop-opacity:1" id="stop1492" offset=".5"/><stop id="stop13011" offset=".75" style="stop-color:#ffc21f;stop-opacity:1"/><stop id="stop1494" offset="1" style="stop-color:#7e5b00;stop-opacity:1"/></linearGradient><linearGradient id="linearGradient1350"><stop id="stop1344" offset="0" style="stop-color:#7e5b00;stop-opacity:1"/><stop style="stop-color:#ffc21f;stop-opacity:1" id="stop13023" offset=".406"/><stop style="stop-color:#fff;stop-opacity:1" id="stop1346" offset=".813"/><stop id="stop1352" offset=".962" style="stop-color:#fff;stop-opacity:1"/><stop id="stop1348" offset="1" style="stop-color:#feb900;stop-opacity:1"/></linearGradient><linearGradient id="linearGradient1244"><stop style="stop-color:#fff;stop-opacity:1" id="stop1240" offset="0"/><stop id="stop1250" offset=".059" style="stop-color:#fff;stop-opacity:1"/><stop style="stop-color:#ffc21f;stop-opacity:1" id="stop13013" offset=".118"/><stop id="stop1248" offset=".176" style="stop-color:#7e5b00;stop-opacity:1"/><stop style="stop-color:#7f7f7f;stop-opacity:1" id="stop1242" offset="1"/></linearGradient><linearGradient id="linearGradient1234"><stop style="stop-color:#7e5b00;stop-opacity:1" id="stop1230" offset="0"/><stop id="stop13015" offset=".5" style="stop-color:#ffc21f;stop-opacity:1"/><stop style="stop-color:#fff;stop-opacity:1" id="stop1232" offset="1"/></linearGradient><linearGradient id="linearGradient1226"><stop style="stop-color:#ffdc7f;stop-opacity:1" id="stop1222" offset="0"/><stop id="stop1238" offset=".333" style="stop-color:#fff;stop-opacity:1"/><stop style="stop-color:#ffc31f;stop-opacity:1" id="stop13017" offset=".667"/><stop style="stop-color:#7e5b00;stop-opacity:1" id="stop1224" offset="1"/></linearGradient><linearGradient id="linearGradient1228" x1="104" x2="104" y1="120" y2="126" gradientUnits="userSpaceOnUse" xlink:href="#linearGradient1226"/><linearGradient id="linearGradient1236" x1="102" x2="102" y1="120" y2="118" gradientUnits="userSpaceOnUse" xlink:href="#linearGradient1234"/><linearGradient id="linearGradient1246" x1="80" x2="114" y1="118" y2="116" gradientUnits="userSpaceOnUse" xlink:href="#linearGradient1244"/><linearGradient id="linearGradient1342" x1="144" x2="144" y1="126" y2="30" gradientUnits="userSpaceOnUse" xlink:href="#linearGradient1350"/><radialGradient id="radialGradient1498" cx="80" cy="75.993" r="4" fx="80" fy="75.993" gradientTransform="matrix(2,-1.0514305e-6,1.0532409e-6,2.0034435,-80.000082,-76.2478)" gradientUnits="userSpaceOnUse" xlink:href="#linearGradient1496"/><linearGradient id="linearGradient1970" x1="80" x2="100" y1="134" y2="134" gradientUnits="userSpaceOnUse" xlink:href="#linearGradient1978"/><radialGradient id="radialGradient2170" cx="80" cy="28" r="20" fx="80" fy="28" gradientTransform="matrix(0,1.6,-2,0,136,-100)" gradientUnits="userSpaceOnUse" xlink:href="#linearGradient2178"/><radialGradient id="radialGradient4556" cx="145.963" cy="109.275" r="30" fx="145.963" fy="109.275" gradientTransform="matrix(-5.4633112e-7,-2.6666679,2.0666671,-4.3048794e-7,-83.835478,489.23493)" gradientUnits="userSpaceOnUse" xlink:href="#linearGradient4178"/><filter style="color-interpolation-filters:sRGB" id="filter12058" width="1.5" height="1.5" x="-.25" y="-.25"><feGaussianBlur id="feGaussianBlur12034" result="result1" stdDeviation="1"/><feGaussianBlur id="feGaussianBlur12036" in="result1" result="result6" stdDeviation="10"/><feComposite id="feComposite12038" in="result6" in2="result1" operator="atop" result="result8"/><feComposite id="feComposite12040" in="result6" in2="result8" operator="xor" result="fbSourceGraphic"/><feColorMatrix id="feColorMatrix12042" in="fbSourceGraphic" result="fbSourceGraphicAlpha" values="0 0 0 -1 0 0 0 0 -1 0 0 0 0 -1 0 0 0 0 2 0"/><feGaussianBlur id="feGaussianBlur12044" in="fbSourceGraphicAlpha" result="result0" stdDeviation="1"/><feSpecularLighting id="feSpecularLighting12048" in="result0" lighting-color="#FFF" result="result1" specularConstant="1.5" specularExponent="35" surfaceScale="-2"><feDistantLight id="feDistantLight12046" azimuth="230" elevation="60"/></feSpecularLighting><feComposite id="feComposite12050" in="result1" in2="fbSourceGraphicAlpha" operator="in" result="result2"/><feComposite id="feComposite12052" in="fbSourceGraphic" in2="result2" k2="1" k3="1" operator="arithmetic" result="result4"/><feComposite id="feComposite12054" in="result9" in2="result4" operator="atop" result="result91"/><feBlend id="feBlend12056" in2="result91" mode="multiply"/></filter><linearGradient id="linearGradient12903" x1="80" x2="120" y1="25" y2="25" gradientUnits="userSpaceOnUse" xlink:href="#linearGradient12913"/><linearGradient id="linearGradient12999" x1="80" x2="120" y1="21" y2="21" gradientUnits="userSpaceOnUse" xlink:href="#linearGradient13009"/><radialGradient id="radialGradient13405" cx="78.688" cy="21" r="21" fx="78.688" fy="21" gradientTransform="matrix(1.3952151e-7,1.8095235,-2.5714288,1.9718247e-7,133.99999,-120.38689)" gradientUnits="userSpaceOnUse" xlink:href="#linearGradient13423"/></defs><metadata id="metadata5"/><g id="layer1" transform="translate(0,-195.83332)" style="display:none"><use id="use1163" width="100%" height="100%" x="0" y="0" transform="matrix(-1,0,0,1,160,0)" xlink:href="#path1155"/><path style="opacity:1;fill:#b9b9b9;fill-opacity:1;fill-rule:nonzero;stroke:none;stroke-width:8;stroke-linecap:round;stroke-linejoin:bevel;stroke-miterlimit:4;stroke-dasharray:none;stroke-opacity:1;paint-order:fill markers stroke" id="path1155" d="m 96,321.83332 c 0,-56 44,-96 44,-96 H 80 v 96 z"/><path style="opacity:1;fill:#000;fill-opacity:1;fill-rule:nonzero;stroke:none;stroke-width:8;stroke-linecap:round;stroke-linejoin:bevel;stroke-miterlimit:4;stroke-dasharray:none;stroke-opacity:1;paint-order:fill markers stroke" id="path835" d="m 80,335.83332 h 20 v -14 h -4 c 0,-6 -8,-6 -8,-6 l -2,-2 -2,-34 c 0,0 4,-2 4,-8 0,-6 -4,-8 -4,-8 0,-10 36,-2 36,-40 v -6 l -2,-2 h -2 -36 v 100 z"/><use id="use843" width="100%" height="100%" x="0" y="0" transform="matrix(-1,0,0,1,160,0)" xlink:href="#path835"/><path id="use1153" d="m -30,259.83332 c 12,0 10,-18 4,-18 0,0 -4,0 -4,4 0,4 4,4 4,4 0,2 0,4 -4,4 -4,0 -4,-8 -4,-8 0,0 0.003,-13.7944 8,-14 10.16255,-0.26126 2,24 16,24 14,0 8.17466,-20.46325 14,-20 5.825338,0.46325 2,16 16,16 v -6 c -10,0 -4.02959,-15.99889 -16,-16 -11.97041,-10e-4 -6,20 -14,20 -8,0 0.16255,-24.26126 -16,-24 -13.99818,0.22626 -14,20 -14,20 0,0 0,14 10,14 z" style="opacity:1;fill:#656565;fill-opacity:1;fill-rule:nonzero;stroke:none;stroke-width:8;stroke-linecap:round;stroke-linejoin:bevel;stroke-miterlimit:4;stroke-dasharray:none;stroke-opacity:1;paint-order:fill markers stroke"/><path style="opacity:1;fill:#e8e8e8;fill-opacity:1;fill-rule:nonzero;stroke:none;stroke-width:8;stroke-linecap:round;stroke-linejoin:bevel;stroke-miterlimit:4;stroke-dasharray:none;stroke-opacity:1;paint-order:fill markers stroke" id="path1159" d="m 80,219.83332 12,26 12,-16 6,16 12,-18 -8,22 -2,-2 -4,4 -4,-12 -12,16 -12,-20 z"/><use id="use1161" width="100%" height="100%" x="0" y="0" transform="matrix(-1,0,0,1,160,0)" xlink:href="#path1159"/></g><g style="display:inline" id="g11325"><path style="display:inline;opacity:1;fill:#00fe7f;fill-opacity:1;fill-rule:nonzero;stroke:none;stroke-width:8;stroke-linecap:round;stroke-linejoin:bevel;stroke-miterlimit:4;stroke-dasharray:none;stroke-opacity:1;paint-order:fill markers stroke;filter:url(#filter12058)" id="path11275" d="m 42,20 -2,2 v 6 c 0,0.682709 0.01429,1.346615 0.03711,2 H 18 c 0,20 50,34 44,96 h -2 v 14 h 20 20 V 126 H 98 C 92,64 142,50 142,30 h -2 -20.03711 C 119.98571,29.346615 120,28.682709 120,28 v -6 l -2,-2 H 80 Z" transform="matrix(0.84247055,0,0,0.88494367,12.602355,9.204506)"/></g><g id="layer2" style="display:inline"><path style="display:inline;opacity:1;fill:url(#linearGradient1342);fill-opacity:1;fill-rule:nonzero;stroke:none;stroke-width:8;stroke-linecap:round;stroke-linejoin:bevel;stroke-miterlimit:4;stroke-dasharray:none;stroke-opacity:1;paint-order:fill markers stroke" id="path1155-6-6" d="M 98,126 C 92,64 142,50 142,30 H 82 v 96 z"/><path style="display:inline;opacity:1;fill:url(#radialGradient4556);fill-opacity:1;fill-rule:nonzero;stroke:none;stroke-width:8;stroke-linecap:round;stroke-linejoin:bevel;stroke-miterlimit:4;stroke-dasharray:none;stroke-opacity:1;paint-order:fill markers stroke" id="path1155-6" d="M 96,126 C 90,64 140,50 140,30 H 80 v 96 z"/><path style="opacity:1;fill:url(#linearGradient1970);fill-opacity:1;fill-rule:nonzero;stroke:none;stroke-width:8;stroke-linecap:round;stroke-linejoin:bevel;stroke-miterlimit:4;stroke-dasharray:none;stroke-opacity:1;paint-order:fill markers stroke" id="path1166" d="m 80,140 c 0,0 20,0 20,0 V 126 H 80 Z"/><path style="opacity:1;fill:url(#linearGradient1228);fill-opacity:1;fill-rule:nonzero;stroke:none;stroke-width:8;stroke-linecap:round;stroke-linejoin:bevel;stroke-miterlimit:4;stroke-dasharray:none;stroke-opacity:1;paint-order:fill markers stroke" id="path1168" d="m 96,126 c 0,0 0,-6 -8,-6 h -8 v 6 z"/><path style="opacity:1;fill:url(#linearGradient1236);fill-opacity:1;fill-rule:nonzero;stroke:none;stroke-width:8;stroke-linecap:round;stroke-linejoin:bevel;stroke-miterlimit:4;stroke-dasharray:none;stroke-opacity:1;paint-order:fill markers stroke" id="path1170" d="m 88,120 c 0,0 -2,-2 -2,-2 h -6 v 2 z"/><path style="opacity:1;fill:url(#linearGradient1246);fill-opacity:1;fill-rule:nonzero;stroke:none;stroke-width:8;stroke-linecap:round;stroke-linejoin:bevel;stroke-miterlimit:4;stroke-dasharray:none;stroke-opacity:1;paint-order:fill markers stroke" id="path1172" d="M 86,118 84,84 h -4 v 34 z"/><path style="opacity:1;fill:url(#radialGradient1498);fill-opacity:1;fill-rule:nonzero;stroke:none;stroke-width:8;stroke-linecap:round;stroke-linejoin:bevel;stroke-miterlimit:4;stroke-dasharray:none;stroke-opacity:1;paint-order:fill markers stroke" id="path1174" d="M 84,84 H 80 V 68 h 4 c 0.07822,-0.311644 4,2 4,8 0,6 -4,8 -4,8 z"/><path style="opacity:1;fill:url(#radialGradient2170);fill-opacity:1;fill-rule:nonzero;stroke:none;stroke-width:8;stroke-linecap:round;stroke-linejoin:bevel;stroke-miterlimit:4;stroke-dasharray:none;stroke-opacity:1;paint-order:fill markers stroke" id="path1176" d="m 80,68 h 4 c 0,-10 36,-2 36,-40 H 80 Z"/><path style="opacity:1;fill:url(#linearGradient12903);fill-opacity:1;fill-rule:nonzero;stroke:none;stroke-width:8;stroke-linecap:round;stroke-linejoin:bevel;stroke-miterlimit:4;stroke-dasharray:none;stroke-opacity:1;paint-order:fill markers stroke" id="path1178" d="m 80,28 c 0,0 40,0 40,0 V 22 H 80 Z"/><path style="opacity:1;fill:url(#linearGradient12999);fill-opacity:1;fill-rule:nonzero;stroke:none;stroke-width:8;stroke-linecap:round;stroke-linejoin:bevel;stroke-miterlimit:4;stroke-dasharray:none;stroke-opacity:1;paint-order:fill markers stroke" id="path1180" d="m 120,22 -2,-2 H 80 v 2 z"/><path style="display:inline;opacity:1;fill:#7e5b00;fill-opacity:1;fill-rule:nonzero;stroke:none;stroke-width:8;stroke-linecap:round;stroke-linejoin:bevel;stroke-miterlimit:4;stroke-dasharray:none;stroke-opacity:1;paint-order:fill markers stroke" id="path1159-3-7" d="m 80,26 12,26 12,-16 6,16 12,-20 -8,22 -2,-2 -4,4 L 104,46 92,62 80,42 Z"/><path style="display:inline;opacity:1;fill:url(#radialGradient13405);fill-opacity:1;fill-rule:nonzero;stroke:none;stroke-width:8;stroke-linecap:round;stroke-linejoin:bevel;stroke-miterlimit:4;stroke-dasharray:none;stroke-opacity:1;paint-order:fill markers stroke" id="path1159-3" d="m 80,24 12,26 12,-16 6,16 12,-18 -8,22 -2,-2 -4,4 L 104,44 92,60 80,40 Z"/><g id="g1426" transform="matrix(-1,0,0,1,120,0)"><use id="use1390" width="100%" height="100%" x="0" y="0" transform="translate(-40)" xlink:href="#path1155-6-6"/><use id="use1392" width="100%" height="100%" x="0" y="0" transform="translate(-40)" xlink:href="#path1155-6"/><use id="use1394" width="100%" height="100%" x="0" y="0" transform="translate(-40)" xlink:href="#path1166"/><use id="use1396" width="100%" height="100%" x="0" y="0" transform="translate(-40)" xlink:href="#path1168"/><use id="use1398" width="100%" height="100%" x="0" y="0" transform="translate(-40)" xlink:href="#path1170"/><use id="use1400" width="100%" height="100%" x="0" y="0" transform="translate(-40)" xlink:href="#path1172"/><use id="use1402" width="100%" height="100%" x="0" y="0" transform="translate(-40)" xlink:href="#path1174"/><use id="use1404" width="100%" height="100%" x="0" y="0" transform="translate(-40)" xlink:href="#path1176"/><use id="use1406" width="100%" height="100%" x="0" y="0" transform="translate(-40)" xlink:href="#path1178"/><use id="use1408" width="100%" height="100%" x="0" y="0" transform="translate(-40)" xlink:href="#path1180"/><use id="use1410" width="100%" height="100%" x="0" y="0" transform="translate(-40)" xlink:href="#path1159-3-7"/><use id="use1412" width="100%" height="100%" x="0" y="0" transform="translate(-40)" xlink:href="#path1159-3"/></g></g></svg>